<svg width="24" height="24" viewBox="0 0 24 24" fill="none" xmlns="http://www.w3.org/2000/svg">
<path d="M9.14569 20.7821V17.7152C9.14567 16.9381 9.77762 16.3067 10.5604 16.3018H13.4346C14.2208 16.3018 14.8582 16.9346 14.8582 17.7152V17.7152V20.7732C14.8582 21.4473 15.406 21.9951 16.0849 22H18.0458C18.9616 22.0023 19.8407 21.6428 20.4891 21.0007C21.1375 20.3586 21.502 19.4868 21.502 18.5775V9.86585C21.5019 9.13139 21.174 8.43471 20.6066 7.9635L13.9449 2.67427C12.7805 1.74912 11.1173 1.77901 9.98734 2.74538L3.46897 7.9635C2.87469 8.42082 2.51951 9.11956 2.50195 9.86585V18.5686C2.50195 20.4637 4.04933 22 5.95813 22H7.87424C8.20113 22.0023 8.51544 21.8751 8.74743 21.6464C8.97941 21.4178 9.10988 21.1067 9.10987 20.7821H9.14569Z" stroke="#073D35"/>
</svg>
