<svg width="24" height="24" viewBox="0 0 24 24" fill="none" xmlns="http://www.w3.org/2000/svg">
<path d="M14.4254 20.5C16.02 20.5 17.4956 19.656 18.3041 18.2815L20.657 14.2815C21.4853 12.8733 21.4853 11.1267 20.657 9.71846L18.3041 5.71846C17.4956 4.34396 16.02 3.5 14.4254 3.5H9.57285C7.97823 3.5 6.50269 4.34392 5.69417 5.71838L3.34118 9.71838C2.51276 11.1267 2.51276 12.8733 3.34118 14.2816L5.69417 18.2816C6.50269 19.6561 7.97823 20.5 9.57285 20.5H14.4254Z" fill="#073D35" stroke="#073D35" stroke-width="2" stroke-linejoin="round"/>
<path d="M11.999 14.5C13.3797 14.5 14.499 13.3807 14.499 12C14.499 10.6193 13.3797 9.5 11.999 9.5C10.6183 9.5 9.49902 10.6193 9.49902 12C9.49902 13.3807 10.6183 14.5 11.999 14.5Z" fill="white" stroke="white" stroke-width="2" stroke-linejoin="round"/>
</svg>
